#!OML:ASF F:\VICON\USERDATA\INSTALL\rory3\rory3.ASF
:FULLY-SPECIFIED
:DEGREES
16
root 0.988465 17.8727 -17.2438 6.77616 -4.11762 0.533801
lowerback 6.40843 -0.0804108 -2.0964
upperback -0.640953 -0.198325 1.7306
thorax -4.24817 -0.029273 2.99351
lowerneck -16.7037 -4.36169 -9.99825
upperneck 16.0557 -4.85322 7.13951
head 8.15149 -2.22272 3.44814
rclavicle -9.39258e-015 -2.34566e-014
rhumerus -30.2814 -5.13585 -82.7454
rradius 34.006
rwrist 4.09559
rhand -13.2836 13.1125
rfingers 7.12502
rthumb 12.8198 -16.4738
lclavicle -9.39258e-015 -2.34566e-014
lhumerus -30.124 7.48552 86.0095
lradius 28.9624
lwrist -6.5779
lhand -16.6734 63.4789
lfingers 7.12502
lthumb 9.55046 -93.2424
rfemur -11.1514 6.54164 18.3953
rtibia 20.2762
rfoot -10.2531 -9.17466
rtoes 5.19631
lfemur -9.45465 -3.13133 -19.6513
ltibia 17.1512
lfoot -10.4305 9.45776
ltoes 1.02611
17
root 0.991819 17.8701 -17.2394 6.75218 -4.17283 0.561575
lowerback 6.37838 -0.105238 -2.1521
upperback -0.621209 -0.233939 1.76587
thorax -4.20803 -0.0461098 3.06482
lowerneck -16.6741 -4.32199 -10.0583
upperneck 16.0721 -4.77943 7.10177
head 8.14557 -2.19591 3.45496
rclavicle 1.3418e-015 2.78299e-015
rhumerus -30.3854 -4.93161 -82.7685
rradius 34.1873
rwrist 3.84891
rhand -13.0949 13.3739
rfingers 7.12502
rthumb 13.0017 -16.2009
lclavicle 1.3418e-015 2.78299e-015
lhumerus -30.0875 7.89996 85.8499
lradius 29.0967
lwrist -7.69936
lhand -12.8553 32.5935
lfingers 7.12502
lthumb 13.2327 62.1535
rfemur -11.1108 6.46005 18.3528
rtibia 20.2576
rfoot -10.2823 -9.06341
rtoes 5.17295
lfemur -9.42486 -3.16542 -19.6989
ltibia 17.2362
lfoot -10.5344 9.50914
ltoes 1.42282
18
root 0.993511 17.8689 -17.235 6.70001 -4.16692 0.506063
lowerback 6.39052 -0.15438 -2.11694
upperback -0.608618 -0.295013 1.81305
thorax -4.19751 -0.0770185 3.10012
lowerneck -16.4638 -4.25948 -10.143
upperneck 15.9815 -4.69227 7.11577
head 8.0728 -2.16203 3.48568
rclavicle -1.77912e-014 -2.78299e-015
rhumerus -30.4489 -4.84044 -82.7888
rradius 34.2275
rwrist 3.65345
rhand -13.0066 13.6067
rfingers 7.12502
rthumb 13.0868 -15.9627
lclavicle -1.77912e-014 -2.78299e-015
lhumerus -30.1279 8.08925 85.7774
lradius 29.1774
lwrist -7.87468
lhand -18.0737 23.6468
lfingers 7.12502
lthumb 8.19917 53.4677
rfemur -11.0228 6.3629 18.4301
rtibia 20.2564
rfoot -10.3339 -9.02841
rtoes 4.9492
lfemur -9.33272 -3.06712 -19.6562
ltibia 17.272
lfoot -10.5982 9.43924
ltoes 1.44609
19
root 0.992964 17.8665 -17.2304 6.67833 -4.1891 0.42714
lowerback 6.39507 -0.134512 -2.06904
upperback -0.538791 -0.264462 1.82863
thorax -4.12967 -0.0646697 3.08568
lowerneck -16.554 -4.29094 -10.0912
upperneck 15.9096 -4.72534 7.06216
head 8.06515 -2.17739 3.45313
rclavicle -4.07509e-015 -1.78906e-014
rhumerus -30.2881 -4.93757 -82.8383
rradius 34.0554
rwrist 3.60836
rhand -13.0556 13.6555
rfingers 7.12502
rthumb 13.0396 -15.917
lclavicle -4.07509e-015 -1.78906e-014
lhumerus -29.9708 8.05237 85.7962
lradius 29.2025
lwrist -7.70045
lhand -19.7191 21.164
lfingers 7.12502
lthumb 6.61096 51.0408
rfemur -11.0002 6.45196 18.5248
rtibia 20.258
rfoot -10.3616 -9.12178
rtoes 4.72086
lfemur -9.31407 -3.07975 -19.5792
ltibia 17.2779
lfoot -10.5359 9.51776
ltoes 0.492615
20
root 0.994031 17.8657 -17.2286 6.68462 -4.19741 0.40864
lowerback 6.42384 -0.110471 -2.04276
upperback -0.509007 -0.231409 1.81521
thorax -4.11731 -0.0495398 3.05363
lowerneck -16.6154 -4.31112 -10.074
upperneck 15.8979 -4.74819 7.05031
head 8.07341 -2.187 3.44269
rclavicle 2.98177e-015 1.55052e-014
rhumerus -30.2191 -5.02599 -82.8741
rradius 33.9713
rwrist 3.74398
rhand -13.0754 13.7266
rfingers 7.12502
rthumb 13.0205 -15.8471
lclavicle 2.98177e-015 1.55052e-014
lhumerus -29.8574 8.22075 85.6884
lradius 29.2183
lwrist -7.98563
lhand -17.5834 23.2613
lfingers 7.12502
lthumb 8.67234 53.0632
rfemur -11.0006 6.63242 18.5357
rtibia 20.2294
rfoot -10.3088 -9.26391
rtoes 4.90037
lfemur -9.37328 -3.15566 -19.559
ltibia 17.2998
lfoot -10.4434 9.61695
ltoes -0.122682
21
root 0.996806 17.8696 -17.223 6.6573 -4.18063 0.436281
lowerback 6.4682 -0.126407 -2.07832
upperback -0.56215 -0.25561 1.82074
thorax -4.19583 -0.058841 3.08279
lowerneck -16.437 -4.27083 -10.0772
upperneck 15.9147 -4.70667 7.0282
head 8.04336 -2.17328 3.44276
rclavicle -8.94531e-016 -6.36111e-015
rhumerus -30.3662 -4.97404 -82.8961
rradius 33.9835
rwrist 3.99183
rhand -13.0581 13.7435
rfingers 7.12502
rthumb 13.0372 -15.829
lclavicle -8.94531e-016 -6.36111e-015
lhumerus -29.983 8.21641 85.677
lradius 29.1518
lwrist -7.44264
lhand -15.0956 25.6455
lfingers 7.12502
lthumb 11.0726 55.3335
rfemur -10.9074 6.6205 18.5047
rtibia 20.1997
rfoot -10.3065 -9.24282
rtoes 5.11959
lfemur -9.32239 -3.2146 -19.6058
ltibia 17.3139
lfoot -10.461 9.66712
ltoes 0.395803
22
root 0.999437 17.8722 -17.2149 6.64429 -4.14933 0.563587
lowerback 6.47621 -0.165281 -2.20921
upperback -0.627765 -0.318135 1.80989
thorax -4.26384 -0.0850877 3.1524
lowerneck -16.1748 -4.26987 -10.0823
upperneck 15.7715 -4.71238 6.96546
head 7.94891 -2.18636 3.42258
rclavicle -1.88845e-014 7.55382e-015
rhumerus -30.5731 -4.85805 -82.912
rradius 34.1286
rwrist 4.19433
rhand -13.2478 13.1716
rfingers 7.12502
rthumb 12.8543 -16.4125
lclavicle -1.88845e-014 7.55382e-015
lhumerus -30.1751 7.6308 85.9928
lradius 29.0468
lwrist -5.03392
lhand -16.6969 25.4601
lfingers 7.12502
lthumb 9.52784 55.2247
rfemur -10.8282 6.49677 18.3539
rtibia 20.1675
rfoot -10.3703 -9.13651
rtoes 5.41569
lfemur -9.25684 -3.25769 -19.7652
ltibia 17.3375
lfoot -10.6061 9.65281
ltoes 0.965128
23
root 1.00147 17.8702 -17.2101 6.66093 -4.16823 0.631239
lowerback 6.41989 -0.175367 -2.28943
upperback -0.617168 -0.336812 1.81541
thorax -4.21935 -0.0932995 3.20463
lowerneck -16.1458 -4.27512 -10.1131
upperneck 15.7061 -4.70695 6.93909
head 7.92181 -2.18822 3.41897
rclavicle 1.43125e-014 -7.95139e-015
rhumerus -30.5666 -4.91914 -82.8573
rradius 34.162
rwrist 4.3204
rhand -13.8009 12.7839
rfingers 7.12502
rthumb 12.3211 -16.8331
lclavicle 1.43125e-014 -7.95139e-015
lhumerus -30.1089 7.21089 86.2525
lradius 29.0172
lwrist -3.47923
lhand -18.5248 24.996
lfingers 7.12502
lthumb 7.76381 54.8335
rfemur -10.8122 6.47097 18.2633
rtibia 20.1032
rfoot -10.3715 -9.11218
rtoes 5.19109
lfemur -9.20203 -3.10925 -19.8669
ltibia 17.4048
lfoot -10.7627 9.52848
ltoes 1.06856
